<?xml version="1.0" encoding="UTF-8"?>
<svg width="752pt" height="752pt" version="1.1" viewBox="0 0 752 752" xmlns="http://www.w3.org/2000/svg">
 <g>
  <path d="m324.98 344.84c2.1016 1.0586 4.3711 1.5625 6.6133 1.5625 3.8438 0 7.6328-1.4883 10.473-4.3359 4.5078-4.5078 5.6211-11.387 2.7734-17.082-10.84-21.68-39.695-55.57-55.773-71.641l-77.137-77.137c-9.8633-9.8672-25.859-9.8672-35.727 0-9.8633 9.8672-9.8633 25.859 0 35.727l77.133 77.133c16.109 16.102 50.023 44.965 71.645 55.773z"/>
  <path d="m393.34 331.6c23.039 0 53.426 11.562 71.461 29.602v-162.79c-11.098-20.348-48.246-29.598-71.461-29.598l-17.336-0.003906c-8.1719 0-14.801 6.6211-14.801 14.801v133.2c0 8.1797 6.625 14.801 14.801 14.801z"/>
  <path d="m568.39 168.81h-17.336c-23.215 0-60.363 9.25-71.461 29.602v162.79c18.035-18.035 48.422-29.598 71.461-29.598l17.336-0.003907c8.1719 0 14.801-6.6211 14.801-14.801l-0.003906-133.19c0-8.1797-6.625-14.801-14.797-14.801z"/>
  <path d="m242.8 376c-8.1719 0-14.801 6.625-14.801 14.801v14.801h88.797v-14.801c0-8.1719-6.625-14.801-14.801-14.801z"/>
  <path d="m472.2 390.8c-53.129 0-96.195 43.07-96.195 96.195 0 53.129 43.07 96.195 96.195 96.195 53.129 0 96.195-43.07 96.195-96.195s-43.07-96.195-96.195-96.195zm2.7812 162.51 2.4492 2.4492c2.8906 2.8906 2.8906 7.5742 0 10.465-1.4453 1.4453-3.3398 2.168-5.2305 2.168-1.8945 0-3.7852-0.72266-5.2305-2.168l-14.801-14.801c-2.8906-2.8906-2.8906-7.5742 0-10.465l14.801-14.801c2.8906-2.8906 7.5742-2.8906 10.465 0s2.8906 7.5742 0 10.465l-1.8242 1.8242c26.945-1.793 48.387-24.062 48.387-51.453 0-28.559-23.238-51.797-51.797-51.797-28.559 0-51.801 23.238-51.801 51.797 0 8.7891 2.2383 17.457 6.4766 25.105 1.9805 3.5703 0.6875 8.0781-2.8828 10.059-3.5859 1.9492-8.0859 0.69531-10.066-2.8906-5.4492-9.8281-8.3242-20.984-8.3242-32.273 0-36.723 29.875-66.598 66.598-66.598 36.723 0 66.598 29.875 66.598 66.598-0.003906 35.773-28.406 64.824-63.816 66.316z"/>
  <path d="m346.39 420.4h-147.98c-8.1797 0-14.809 6.6211-14.809 14.801 0 8.1797 6.6289 14.801 14.809 14.801l14.883 120.03c0.83203 7.5 7.1602 13.164 14.703 13.164h14.801v-96.195c0-4.0898 3.3086-7.3984 7.3984-7.3984s7.3984 3.3086 7.3984 7.3984l0.003907 96.195h29.598v-96.195c0-4.0898 3.3086-7.3984 7.3984-7.3984 4.0898 0 7.3984 3.3086 7.3984 7.3984l0.003906 96.195h14.801c7.543 0 13.875-5.6641 14.707-13.168l14.883-120.02c8.1758 0 14.809-6.6211 14.809-14.801 0-8.1797-6.6328-14.801-14.809-14.801z"/>
 </g>
</svg>
